<svg data-v-0dd9719b="" version="1.0" xmlns="http://www.w3.org/2000/svg" xmlns:xlink="http://www.w3.org/1999/xlink" width="100%" height="100%" viewBox="0 0 340.000000 250.000000" preserveAspectRatio="xMidYMid meet" color-interpolation-filters="sRGB" style="margin: auto;"> <rect data-v-0dd9719b="" x="0" y="0" width="100%" height="100%" fill="#fff" fill-opacity="1" class="background"></rect> <rect data-v-0dd9719b="" x="0" y="0" width="100%" height="100%" fill="url(#watermark)" fill-opacity="1" class="watermarklayer"></rect> <g data-v-0dd9719b="" fill="#128de0" class="icon-text-wrapper icon-svg-group iconsvg" transform="translate(81.55999755859375,79.57257461547852)"><g class="iconsvg-imagesvg" transform="translate(58.44000244140625,0)"><g><rect fill="#128de0" fill-opacity="0" stroke-width="2" x="0" y="0" width="60" height="61.384842036339826" class="image-rect"></rect> <svg x="0" y="0" width="60" height="61.384842036339826" filtersec="colorsb4017328604" class="image-svg-svg primary" style="overflow: visible;"><svg xmlns="http://www.w3.org/2000/svg" viewBox="4 5.190000057220459 940.8200073242188 962.5299682617188"><path fill="#128DE0" d="M868.27 747.23c-.52.82-.97 1.57-1.49 2.39-82.72 131.05-228.84 218.1-395.32 218.1C213.3 967.72 4 758.42 4 500.27c0-90.25 25.59-174.54 69.97-246C60.09 366.5 114.16 646.58 396.29 603.3c268.79-41.24 449.38 7.69 471.98 143.93z"></path><path fill="#0F9FEF" d="M868.27 747.23c-.52.82-.97 1.57-1.49 2.39-82.72 131.05-228.84 218.1-395.32 218.1C213.3 967.72 4 758.42 4 500.27c0-90.25 25.59-174.54 69.97-246-119.65 418.67 169.39 519.37 307.38 467.15 288.37-109.11 463.08-94.82 486.92 25.81z"></path><path fill="#0FBAE8" d="M868.27 747.23c-.52.82-.97 1.57-1.49 2.39-82.72 131.05-228.84 218.1-395.32 218.1C213.3 967.72 4 758.42 4 500.27 4 488.56 6.4 869 449.1 822.86 619.38 805.11 774.17 628 868.27 747.23z"></path><path fill="#128DE0" d="M80.55 225.67c.52-.82.97-1.57 1.49-2.39C164.76 92.23 310.88 5.19 477.37 5.19c258.16 0 467.45 209.3 467.45 467.45 0 90.25-25.59 174.54-69.97 246 13.88-112.23-40.19-392.31-322.32-349.03-268.79 41.23-449.38-7.7-471.98-143.94z"></path><path fill="#0F9FEF" d="M80.55 225.67c.52-.82.97-1.57 1.49-2.39C164.76 92.23 310.88 5.19 477.37 5.19c258.16 0 467.45 209.3 467.45 467.45 0 90.25-25.59 174.54-69.97 246C994.5 299.96 705.46 199.27 567.47 251.48 279.1 360.59 104.4 346.31 80.55 225.67z"></path><path fill="#0FBAE8" d="M80.55 225.67c.52-.82.97-1.57 1.49-2.39C164.76 92.23 310.88 5.19 477.37 5.19c258.16 0 467.45 209.3 467.45 467.45 0 11.71-2.4-368.73-445.1-322.59-170.28 17.75-325.07 194.86-419.17 75.62z"></path></svg></svg> <!----></g></g> <g transform="translate(0,68.38484573364258)"><g data-gra="path-name" fill-rule="" class="tp-name iconsvg-namesvg"><g transform="scale(1)"><g><path d="M16.7 0Q16.89 0 17.03-0.14 17.17-0.28 17.17-0.47L17.17-0.47 17.17-2.59 4.74-2.59 4.74-10.02 16.04-10.02Q16.23-10.02 16.37-10.16 16.51-10.3 16.51-10.49L16.51-10.49 16.51-12.58 4.74-12.58 4.68-19.29 16.2-19.29Q16.39-19.29 16.53-19.43 16.67-19.57 16.67-19.76L16.67-19.76 16.67-21.85 1.56-21.85 1.56 0 16.7 0ZM33.87 0Q34.05 0 34.19-0.14 34.33-0.28 34.33-0.47L34.33-0.47 34.33-2.47 23.47-2.47 23.47-21.85 20.29-21.85 20.29 0 33.87 0ZM43.38-21.85L40.29-21.85 40.29 0 42.92 0Q43.1 0 43.24-0.14 43.38-0.28 43.38-0.47L43.38-0.47 43.38-21.85ZM55.53 0Q55.71 0 55.85-0.14 55.99-0.28 55.99-0.47L55.99-0.47 55.99-19.26 61.49-19.26Q61.68-19.26 61.82-19.4 61.96-19.54 61.96-19.73L61.96-19.73 61.96-21.85 47.01-21.85 47.01-19.26 52.94-19.26 52.94 0 55.53 0ZM79.9 0Q80.09 0 80.23-0.14 80.37-0.28 80.37-0.47L80.37-0.47 80.37-2.59 67.95-2.59 67.95-10.02 79.25-10.02Q79.43-10.02 79.58-10.16 79.72-10.3 79.72-10.49L79.72-10.49 79.72-12.58 67.95-12.58 67.89-19.29 79.4-19.29Q79.59-19.29 79.73-19.43 79.87-19.57 79.87-19.76L79.87-19.76 79.87-21.85 64.77-21.85 64.77 0 79.9 0ZM83.8-5.99Q84.3-2.87 86.66-1.28 89.02 0.31 92.45 0.31L92.45 0.31Q94.51 0.31 96.26-0.58 98.01-1.47 99.22-2.89 100.44-4.31 100.44-6.24L100.44-6.24Q100.44-8.43 99.13-9.69 97.82-10.96 96.27-11.52 94.73-12.08 92.01-12.73L92.01-12.73 91.39-12.92Q89.39-13.42 88.22-14.09 87.05-14.76 87.05-16.14L87.05-16.14Q87.05-17.88 88.49-18.73 89.92-19.57 91.89-19.57L91.89-19.57Q96.51-18.95 97.41-15.76L97.41-15.76 99.44-16.39Q99.1-19.07 96.96-20.62 94.82-22.16 91.76-22.16L91.76-22.16Q86.68-22.16 85.41-20.66 84.15-19.16 84.15-16.01L84.15-16.01Q84.15-14.14 85.29-12.97 86.43-11.8 87.78-11.22 89.14-10.64 91.36-10.02L91.36-10.02Q91.76-9.89 92.14-9.86L92.14-9.86Q93.73-9.52 94.84-9.15 95.95-8.77 96.76-8.04 97.57-7.3 97.57-6.12L97.57-6.12Q97.57-4.24 96.01-3.36 94.45-2.47 92.33-2.47L92.33-2.47Q90.27-2.47 88.33-3.62 86.4-4.78 85.83-6.62L85.83-6.62 83.8-5.99ZM107.31-19.26L112.33-19.26Q114.7-19.26 115.98-18.49 117.26-17.73 117.26-15.48L117.26-15.48Q117.26-13.27 115.97-12.36 114.67-11.45 112.33-11.45L112.33-11.45 107.31-11.45 107.31-19.26ZM107.31-8.83L112.33-8.83Q115.95-8.83 118.04-10.46L118.04-10.46Q120.14-12.05 120.14-15.48L120.14-15.48Q120.14-19.1 118.01-20.48L118.01-20.48Q115.83-21.85 112.08-21.85L112.08-21.85 104.28-21.85 104.28 0 106.84 0Q107.03 0 107.17-0.14 107.31-0.28 107.31-0.47L107.31-0.47 107.31-8.83ZM124.5 0.03L126.69-6.59 136.37-6.59 138.68 0.03 141.67 0.03 132.9-21.82 129.69-21.82 121.38 0.03 124.5 0.03ZM131.5-19.13L135.52-8.93 127.47-8.93 131.5-19.13ZM158.25-6.84Q157.53-4.9 155.73-3.54 153.94-2.18 151.85-2.18L151.85-2.18Q149.47-2.18 147.93-3.46 146.38-4.74 145.85-6.69 145.32-8.65 145.32-10.8L145.32-10.8Q145.32-13.11 145.96-15.03 146.6-16.95 148.13-18.1 149.66-19.26 151.75-19.26L151.75-19.26Q153.91-19.26 155.53-18.13 157.15-17.01 157.87-15.45L157.87-15.45 160.31-16.07Q158.96-18.95 156.92-20.29 154.87-21.63 151.47-21.63L151.47-21.63Q148.66-21.63 146.54-20.16 144.42-18.7 143.26-16.18 142.11-13.67 142.11-10.61L142.11-10.61Q142.11-7.58 143.23-5.13 144.36-2.68 146.6-1.23 148.85 0.22 152.07 0.22L152.07 0.22Q155.28 0.22 157.5-1.45 159.71-3.12 160.65-6.21L160.65-6.21 158.25-6.84ZM177.97 0Q178.16 0 178.3-0.14 178.44-0.28 178.44-0.47L178.44-0.47 178.44-2.59 166.02-2.59 166.02-10.02 177.32-10.02Q177.5-10.02 177.64-10.16 177.78-10.3 177.78-10.49L177.78-10.49 177.78-12.58 166.02-12.58 165.95-19.29 177.47-19.29Q177.66-19.29 177.8-19.43 177.94-19.57 177.94-19.76L177.94-19.76 177.94-21.85 162.83-21.85 162.83 0 177.97 0Z" transform="translate(-1.559999942779541, 22.15999984741211)"></path></g> <!----> <!----> <!----> <!----> <!----> <!----> <!----></g></g> <!----></g></g><defs v-gra="od"></defs></svg>